<mxfile host="app.diagrams.net" modified="2022-01-17T16:56:25.527Z" agent="5.0 (Macintosh; Intel Mac OS X 10_15_7) AppleWebKit/537.36 (KHTML, like Gecko) Chrome/97.0.4692.71 Safari/537.36" etag="Y1PjpUoexbEexW5t1LVu" version="16.2.7" type="github">
  <diagram id="LYqabaGnR2nwO2lBWgiS" name="Page-1">
    <mxGraphModel dx="1036" dy="646" grid="1" gridSize="10" guides="1" tooltips="1" connect="1" arrows="1" fold="1" page="1" pageScale="1" pageWidth="850" pageHeight="1100" math="0" shadow="0">
      <root>
        <mxCell id="0" />
        <mxCell id="1" parent="0" />
        <mxCell id="Qug734RqE4bYD9L-5B9R-2" style="edgeStyle=orthogonalEdgeStyle;rounded=0;orthogonalLoop=1;jettySize=auto;html=1;exitX=0.25;exitY=1;exitDx=0;exitDy=0;" edge="1" parent="1" source="Qug734RqE4bYD9L-5B9R-1">
          <mxGeometry relative="1" as="geometry">
            <mxPoint x="260" y="270" as="targetPoint" />
          </mxGeometry>
        </mxCell>
        <mxCell id="Qug734RqE4bYD9L-5B9R-5" style="edgeStyle=orthogonalEdgeStyle;rounded=0;orthogonalLoop=1;jettySize=auto;html=1;exitX=0.75;exitY=1;exitDx=0;exitDy=0;" edge="1" parent="1" source="Qug734RqE4bYD9L-5B9R-1" target="Qug734RqE4bYD9L-5B9R-4">
          <mxGeometry relative="1" as="geometry" />
        </mxCell>
        <mxCell id="Qug734RqE4bYD9L-5B9R-1" value="Ceramic&lt;br&gt;" style="whiteSpace=wrap;html=1;aspect=fixed;" vertex="1" parent="1">
          <mxGeometry x="330" y="130" width="80" height="80" as="geometry" />
        </mxCell>
        <mxCell id="Qug734RqE4bYD9L-5B9R-6" style="edgeStyle=orthogonalEdgeStyle;rounded=0;orthogonalLoop=1;jettySize=auto;html=1;exitX=0.25;exitY=1;exitDx=0;exitDy=0;" edge="1" parent="1" source="Qug734RqE4bYD9L-5B9R-3">
          <mxGeometry relative="1" as="geometry">
            <mxPoint x="160" y="380" as="targetPoint" />
          </mxGeometry>
        </mxCell>
        <mxCell id="Qug734RqE4bYD9L-5B9R-3" value="ETH&lt;br&gt;address" style="whiteSpace=wrap;html=1;aspect=fixed;" vertex="1" parent="1">
          <mxGeometry x="220" y="270" width="80" height="80" as="geometry" />
        </mxCell>
        <mxCell id="Qug734RqE4bYD9L-5B9R-4" value="Solana&lt;br&gt;address" style="whiteSpace=wrap;html=1;aspect=fixed;" vertex="1" parent="1">
          <mxGeometry x="370" y="270" width="80" height="80" as="geometry" />
        </mxCell>
        <mxCell id="Qug734RqE4bYD9L-5B9R-7" value="unique nft&lt;br&gt;Learn Badges.&lt;br&gt;" style="whiteSpace=wrap;html=1;aspect=fixed;" vertex="1" parent="1">
          <mxGeometry x="120" y="380" width="80" height="80" as="geometry" />
        </mxCell>
        <mxCell id="Qug734RqE4bYD9L-5B9R-8" value="unique nft&lt;br&gt;Learn Badges.&lt;br&gt;" style="whiteSpace=wrap;html=1;aspect=fixed;" vertex="1" parent="1">
          <mxGeometry x="290" y="380" width="80" height="80" as="geometry" />
        </mxCell>
        <mxCell id="Qug734RqE4bYD9L-5B9R-9" style="edgeStyle=orthogonalEdgeStyle;rounded=0;orthogonalLoop=1;jettySize=auto;html=1;exitX=0.5;exitY=1;exitDx=0;exitDy=0;entryX=0.5;entryY=0;entryDx=0;entryDy=0;" edge="1" parent="1" source="Qug734RqE4bYD9L-5B9R-4" target="Qug734RqE4bYD9L-5B9R-8">
          <mxGeometry relative="1" as="geometry">
            <mxPoint x="330" y="372" as="targetPoint" />
            <mxPoint x="410" y="365" as="sourcePoint" />
            <Array as="points">
              <mxPoint x="410" y="360" />
              <mxPoint x="350" y="360" />
              <mxPoint x="350" y="352" />
              <mxPoint x="330" y="352" />
            </Array>
          </mxGeometry>
        </mxCell>
      </root>
    </mxGraphModel>
  </diagram>
</mxfile>
